<mxfile host="65bd71144e">
    <diagram id="0QctVk-x8brW0fUo9_Ei" name="第 1 页">
        <mxGraphModel dx="5530" dy="-37" grid="0" gridSize="10" guides="1" tooltips="1" connect="1" arrows="1" fold="1" page="0" pageScale="1" pageWidth="1169" pageHeight="827" background="#ffffff" math="0" shadow="0">
            <root>
                <mxCell id="0"/>
                <mxCell id="1" parent="0"/>
                <mxCell id="30" value="" style="rounded=1;whiteSpace=wrap;html=1;absoluteArcSize=1;arcSize=14;strokeWidth=2;fontSize=15;fontColor=#000000;fillColor=#F0FFF6;strokeColor=none;" parent="1" vertex="1">
                    <mxGeometry x="-4697" y="710" width="411.25" height="689" as="geometry"/>
                </mxCell>
                <mxCell id="21" value="" style="rounded=1;whiteSpace=wrap;html=1;absoluteArcSize=1;arcSize=14;strokeWidth=2;fontSize=15;fontColor=#000000;fillColor=#E6F1FF;strokeColor=none;" parent="1" vertex="1">
                    <mxGeometry x="-5124" y="710" width="411.25" height="689" as="geometry"/>
                </mxCell>
                <mxCell id="2" value="" style="rounded=0;whiteSpace=wrap;html=1;fillColor=#F2F2F2;strokeColor=#36393d;strokeWidth=2;" parent="1" vertex="1">
                    <mxGeometry x="-4961" y="1010" width="206" height="89" as="geometry"/>
                </mxCell>
                <mxCell id="4" value="" style="shape=cylinder3;whiteSpace=wrap;html=1;boundedLbl=1;backgroundOutline=1;size=15;fillColor=#F2F2F2;strokeColor=#36393d;strokeWidth=2;" parent="1" vertex="1">
                    <mxGeometry x="-4159.39" y="1235" width="139.75" height="145" as="geometry"/>
                </mxCell>
                <mxCell id="12" style="edgeStyle=none;html=1;fontSize=25;fontColor=#000000;strokeColor=#000000;rounded=0;strokeWidth=2;" parent="1" edge="1">
                    <mxGeometry relative="1" as="geometry">
                        <mxPoint x="-4858" y="883" as="sourcePoint"/>
                        <mxPoint x="-4858" y="984" as="targetPoint"/>
                    </mxGeometry>
                </mxCell>
                <mxCell id="9" value="" style="strokeWidth=2;html=1;shape=mxgraph.flowchart.multi-document;whiteSpace=wrap;fontSize=25;fillColor=#F2F2F2;strokeColor=#36393d;" parent="1" vertex="1">
                    <mxGeometry x="-4954" y="735" width="210" height="135" as="geometry"/>
                </mxCell>
                <mxCell id="6" value="Existing&lt;br&gt;Gazetteers" style="text;html=1;fillColor=none;align=center;verticalAlign=middle;whiteSpace=wrap;rounded=0;fontSize=25;strokeWidth=2;fontColor=#000000;" parent="1" vertex="1">
                    <mxGeometry x="-4180.01" y="1291" width="181" height="53" as="geometry"/>
                </mxCell>
                <mxCell id="8" value="Historical &lt;br&gt;Text" style="text;html=1;fillColor=none;align=center;verticalAlign=middle;whiteSpace=wrap;rounded=0;fontSize=25;strokeWidth=2;fontColor=#000000;" parent="1" vertex="1">
                    <mxGeometry x="-4956" y="778" width="195.5" height="53" as="geometry"/>
                </mxCell>
                <mxCell id="10" value="Generative AI &lt;br&gt;Model" style="text;html=1;fillColor=none;align=center;verticalAlign=middle;whiteSpace=wrap;rounded=0;fontSize=25;strokeWidth=2;fontColor=#000000;" parent="1" vertex="1">
                    <mxGeometry x="-4998.5" y="1028" width="281" height="53" as="geometry"/>
                </mxCell>
                <mxCell id="13" value="Extractor" style="text;html=1;fillColor=none;align=center;verticalAlign=middle;whiteSpace=wrap;rounded=0;fontSize=25;strokeWidth=2;fontColor=#000000;fontStyle=1" parent="1" vertex="1">
                    <mxGeometry x="-5198" y="1036" width="281" height="53" as="geometry"/>
                </mxCell>
                <mxCell id="15" value="Geocoder" style="text;html=1;fillColor=none;align=center;verticalAlign=middle;whiteSpace=wrap;rounded=0;fontSize=25;strokeWidth=2;fontColor=#000000;fontStyle=1" parent="1" vertex="1">
                    <mxGeometry x="-4768" y="1038" width="281" height="53" as="geometry"/>
                </mxCell>
                <mxCell id="16" style="edgeStyle=none;html=1;fontSize=25;fontColor=#000000;strokeColor=#000000;rounded=0;strokeWidth=2;" parent="1" edge="1">
                    <mxGeometry relative="1" as="geometry">
                        <mxPoint x="-4859.61" y="1125.0000000000002" as="sourcePoint"/>
                        <mxPoint x="-4859.61" y="1226" as="targetPoint"/>
                    </mxGeometry>
                </mxCell>
                <mxCell id="17" value="" style="shape=cylinder3;whiteSpace=wrap;html=1;boundedLbl=1;backgroundOutline=1;size=15;fillColor=#F2F2F2;strokeColor=#36393d;strokeWidth=2;" parent="1" vertex="1">
                    <mxGeometry x="-4159.38" y="725" width="139.75" height="145" as="geometry"/>
                </mxCell>
                <mxCell id="18" value="New&lt;br&gt;Gazetteers" style="text;html=1;fillColor=none;align=center;verticalAlign=middle;whiteSpace=wrap;rounded=0;fontSize=25;strokeWidth=2;fontColor=#000000;" parent="1" vertex="1">
                    <mxGeometry x="-4180" y="777" width="181" height="53" as="geometry"/>
                </mxCell>
                <mxCell id="20" style="edgeStyle=none;html=1;fontSize=25;fontColor=#000000;strokeColor=#000000;rounded=0;strokeWidth=2;exitX=0.978;exitY=0.897;exitDx=0;exitDy=0;exitPerimeter=0;" parent="1" source="21" edge="1">
                    <mxGeometry relative="1" as="geometry">
                        <mxPoint x="-4705" y="1328" as="sourcePoint"/>
                        <mxPoint x="-4564" y="1328" as="targetPoint"/>
                    </mxGeometry>
                </mxCell>
                <mxCell id="26" value="" style="strokeWidth=2;html=1;shape=mxgraph.flowchart.multi-document;whiteSpace=wrap;fontSize=25;fillColor=#F2F2F2;strokeColor=#36393d;" parent="1" vertex="1">
                    <mxGeometry x="-4959.25" y="1253" width="210" height="135" as="geometry"/>
                </mxCell>
                <mxCell id="27" value="Toponyms with&lt;br&gt;Location References" style="text;html=1;fillColor=none;align=center;verticalAlign=middle;whiteSpace=wrap;rounded=0;fontSize=25;strokeWidth=2;fontColor=#000000;" parent="1" vertex="1">
                    <mxGeometry x="-4970.75" y="1299" width="215" height="53" as="geometry"/>
                </mxCell>
                <mxCell id="35" value="" style="strokeWidth=2;html=1;shape=mxgraph.flowchart.multi-document;whiteSpace=wrap;fontSize=25;fillColor=#F2F2F2;strokeColor=#36393d;" parent="1" vertex="1">
                    <mxGeometry x="-4538.5" y="735" width="210" height="135" as="geometry"/>
                </mxCell>
                <mxCell id="36" value="Toponyms with Coordinates" style="text;html=1;fillColor=none;align=center;verticalAlign=middle;whiteSpace=wrap;rounded=0;fontSize=25;strokeWidth=2;fontColor=#000000;" parent="1" vertex="1">
                    <mxGeometry x="-4550" y="777" width="215" height="53" as="geometry"/>
                </mxCell>
                <mxCell id="37" value="" style="rounded=0;whiteSpace=wrap;html=1;fillColor=#F2F2F2;strokeColor=#36393d;strokeWidth=2;" parent="1" vertex="1">
                    <mxGeometry x="-4542.5" y="1291" width="200" height="75" as="geometry"/>
                </mxCell>
                <mxCell id="41" value="" style="rounded=0;whiteSpace=wrap;html=1;fillColor=#F2F2F2;strokeColor=#36393d;strokeWidth=2;" parent="1" vertex="1">
                    <mxGeometry x="-4543.5" y="1118" width="200" height="75" as="geometry"/>
                </mxCell>
                <mxCell id="42" value="Spatial Relation&lt;br&gt;Detection" style="text;html=1;fillColor=none;align=center;verticalAlign=middle;whiteSpace=wrap;rounded=0;fontSize=25;strokeWidth=2;fontColor=#000000;" parent="1" vertex="1">
                    <mxGeometry x="-4535" y="1129" width="181" height="53" as="geometry"/>
                </mxCell>
                <mxCell id="43" value="" style="rounded=0;whiteSpace=wrap;html=1;fillColor=#F2F2F2;strokeColor=#36393d;strokeWidth=2;" parent="1" vertex="1">
                    <mxGeometry x="-4542.5" y="949" width="200" height="75" as="geometry"/>
                </mxCell>
                <mxCell id="44" value="Coordinate&lt;br&gt;Calculation" style="text;html=1;fillColor=none;align=center;verticalAlign=middle;whiteSpace=wrap;rounded=0;fontSize=25;strokeWidth=2;fontColor=#000000;" parent="1" vertex="1">
                    <mxGeometry x="-4534" y="960" width="181" height="53" as="geometry"/>
                </mxCell>
                <mxCell id="49" style="edgeStyle=none;html=1;fontSize=25;fontColor=#000000;strokeColor=#000000;rounded=0;strokeWidth=2;" parent="1" edge="1">
                    <mxGeometry relative="1" as="geometry">
                        <mxPoint x="-4313" y="792" as="sourcePoint"/>
                        <mxPoint x="-4177" y="792" as="targetPoint"/>
                    </mxGeometry>
                </mxCell>
                <mxCell id="51" style="edgeStyle=none;html=1;fontSize=25;fontColor=#000000;strokeColor=#000000;rounded=0;strokeWidth=2;" parent="1" edge="1">
                    <mxGeometry relative="1" as="geometry">
                        <mxPoint x="-4185" y="1327.07" as="sourcePoint"/>
                        <mxPoint x="-4321" y="1327.07" as="targetPoint"/>
                    </mxGeometry>
                </mxCell>
                <mxCell id="56" style="edgeStyle=none;html=1;fontSize=25;fontColor=#000000;strokeColor=#000000;rounded=0;strokeWidth=2;endArrow=classic;endFill=1;entryX=0.513;entryY=1.009;entryDx=0;entryDy=0;entryPerimeter=0;" parent="1" edge="1">
                    <mxGeometry relative="1" as="geometry">
                        <mxPoint x="-4442" y="1106" as="sourcePoint"/>
                        <mxPoint x="-4441.9" y="1037.675" as="targetPoint"/>
                    </mxGeometry>
                </mxCell>
                <mxCell id="60" value="Gazetteer&lt;br&gt;Matching" style="text;html=1;fillColor=none;align=center;verticalAlign=middle;whiteSpace=wrap;rounded=0;fontSize=25;strokeWidth=2;fontColor=#000000;" parent="1" vertex="1">
                    <mxGeometry x="-4534" y="1301" width="181" height="53" as="geometry"/>
                </mxCell>
                <mxCell id="61" style="edgeStyle=none;html=1;fontSize=25;fontColor=#000000;strokeColor=#000000;rounded=0;strokeWidth=2;endArrow=classic;endFill=1;entryX=0.513;entryY=1.009;entryDx=0;entryDy=0;entryPerimeter=0;" parent="1" edge="1">
                    <mxGeometry relative="1" as="geometry">
                        <mxPoint x="-4440" y="937.3199999999999" as="sourcePoint"/>
                        <mxPoint x="-4439.9" y="868.9949999999999" as="targetPoint"/>
                    </mxGeometry>
                </mxCell>
                <mxCell id="62" style="edgeStyle=none;html=1;fontSize=25;fontColor=#000000;strokeColor=#000000;rounded=0;strokeWidth=2;endArrow=classic;endFill=1;entryX=0.513;entryY=1.009;entryDx=0;entryDy=0;entryPerimeter=0;" parent="1" edge="1">
                    <mxGeometry relative="1" as="geometry">
                        <mxPoint x="-4443.27" y="1279" as="sourcePoint"/>
                        <mxPoint x="-4443.17" y="1210.675" as="targetPoint"/>
                    </mxGeometry>
                </mxCell>
            </root>
        </mxGraphModel>
    </diagram>
</mxfile>